# Wavefront OBJ
# Created by fragMOTION 1.3.5
# http://www.fragmosoft.com

mtllib dieA.mtl
# 10 vertices
v -15.8621 16.5517 -16.2069
v -15.8621 16.5517 16.2069
v 15.8621 16.5517 16.2069
v 15.8621 16.5517 -16.2069
v -15.8621 -16.5517 -16.2069
v -15.8621 -16.5517 16.2069
v 15.8621 -16.5517 16.2069
v 15.8621 -16.5517 -16.2069
v 73.3311 101.664 22.3308
v 73.3311 -101.664 22.3308
# 18 texture vertices
vt 0 0
vt 0.25 -0.25
vt 0 -0.25
vt 0.25 0
vt 0.5 -0.25
vt 0.5 0
vt 0.75 -0.25
vt 0.75 0
vt 1 -0.25
vt 1 0
vt 0.5 -0.5
vt 0.75 -0.5
vt 0.75 -0.75
vt 0.5 -0.75
vt 0.25 -0.75
vt 0.25 -0.5
vt 0 -0.5
vt 0 -0.75
# 6 normals
vn -1 0 0
vn 0 0 1
vn 1 0 0
vn 0 0 -1
vn 0 1 0
vn 0 -1 0
g Box
s 2
f 9/1/2 10/3/2 10/2/2
f 9/1/2 10/2/2 9/4/2
f 9/4/2 10/2/2 10/5/2
f 9/4/2 10/5/2 9/6/2
f 9/6/2 10/5/2 10/7/2
f 9/6/2 10/7/2 9/8/2
f 9/8/2 10/7/2 10/9/2
f 9/8/2 10/9/2 9/10/2
f 9/11/2 9/13/2 9/12/2
f 9/11/2 9/14/2 9/13/2
f 10/15/2 10/17/2 10/16/2
f 10/15/2 10/18/2 10/17/2
usemtl Outlines
g Box3
s 1
f 1/1/1 5/3/1 6/2/1
f 1/1/1 6/2/1 2/4/1
f 2/4/2 6/2/2 7/5/2
f 2/4/2 7/5/2 3/6/2
f 3/6/3 7/5/3 8/7/3
f 3/6/3 8/7/3 4/8/3
f 4/8/4 8/7/4 5/9/4
f 4/8/4 5/9/4 1/10/4
f 1/11/5 3/13/5 4/12/5
f 1/11/5 2/14/5 3/13/5
f 5/15/6 7/17/6 6/16/6
f 5/15/6 8/18/6 7/17/6
